<svg version="1.0" xmlns="http://www.w3.org/2000/svg" xmlns:xlink="http://www.w3.org/1999/xlink"
	 viewBox="0 0 100 100" enable-background="new 0 0 100 100" xml:space="preserve">
	
<svg xmlns="http://www.w3.org/2000/svg" xmlns:xlink="http://www.w3.org/1999/xlink" version="1.1" width="100" height="100" viewBox="0 0 2000 2000" x="0" y="0" shape-rendering="crispEdges"><defs/><rect x="0" y="0" width="2000" height="2000" fill="transparent"/><rect x="629" y="173" width="57" height="57" fill="#00868a"/><rect x="857" y="173" width="57" height="57" fill="#00868a"/><rect x="914" y="173" width="57" height="57" fill="#00868a"/><rect x="971" y="173" width="57" height="57" fill="#00868a"/><rect x="1085" y="173" width="57" height="57" fill="#00868a"/><rect x="1313" y="173" width="57" height="57" fill="#00868a"/><rect x="629" y="230" width="57" height="57" fill="#00868a"/><rect x="857" y="230" width="57" height="57" fill="#00868a"/><rect x="971" y="230" width="57" height="57" fill="#00868a"/><rect x="1028" y="230" width="57" height="57" fill="#00868a"/><rect x="1142" y="230" width="57" height="57" fill="#00868a"/><rect x="1256" y="230" width="57" height="57" fill="#00868a"/><rect x="629" y="287" width="57" height="57" fill="#00868a"/><rect x="686" y="287" width="57" height="57" fill="#00868a"/><rect x="800" y="287" width="57" height="57" fill="#00868a"/><rect x="914" y="287" width="57" height="57" fill="#00868a"/><rect x="1028" y="287" width="57" height="57" fill="#00868a"/><rect x="1256" y="287" width="57" height="57" fill="#00868a"/><rect x="1313" y="287" width="57" height="57" fill="#00868a"/><rect x="743" y="344" width="57" height="57" fill="#00868a"/><rect x="914" y="344" width="57" height="57" fill="#00868a"/><rect x="971" y="344" width="57" height="57" fill="#00868a"/><rect x="1028" y="344" width="57" height="57" fill="#00868a"/><rect x="1142" y="344" width="57" height="57" fill="#00868a"/><rect x="1199" y="344" width="57" height="57" fill="#00868a"/><rect x="1313" y="344" width="57" height="57" fill="#00868a"/><rect x="743" y="401" width="57" height="57" fill="#00868a"/><rect x="857" y="401" width="57" height="57" fill="#00868a"/><rect x="914" y="401" width="57" height="57" fill="#00868a"/><rect x="1199" y="401" width="57" height="57" fill="#00868a"/><rect x="629" y="458" width="57" height="57" fill="#00868a"/><rect x="857" y="458" width="57" height="57" fill="#00868a"/><rect x="914" y="458" width="57" height="57" fill="#00868a"/><rect x="971" y="458" width="57" height="57" fill="#00868a"/><rect x="1028" y="458" width="57" height="57" fill="#00868a"/><rect x="1199" y="458" width="57" height="57" fill="#00868a"/><rect x="1313" y="458" width="57" height="57" fill="#00868a"/><rect x="629" y="515" width="57" height="57" fill="#00868a"/><rect x="743" y="515" width="57" height="57" fill="#00868a"/><rect x="857" y="515" width="57" height="57" fill="#00868a"/><rect x="971" y="515" width="57" height="57" fill="#00868a"/><rect x="1085" y="515" width="57" height="57" fill="#00868a"/><rect x="1199" y="515" width="57" height="57" fill="#00868a"/><rect x="1313" y="515" width="57" height="57" fill="#00868a"/><rect x="629" y="572" width="57" height="57" fill="#00868a"/><rect x="686" y="572" width="57" height="57" fill="#00868a"/><rect x="1028" y="572" width="57" height="57" fill="#00868a"/><rect x="1085" y="572" width="57" height="57" fill="#00868a"/><rect x="1199" y="572" width="57" height="57" fill="#00868a"/><rect x="1256" y="572" width="57" height="57" fill="#00868a"/><rect x="1313" y="572" width="57" height="57" fill="#00868a"/><rect x="287" y="629" width="57" height="57" fill="#00868a"/><rect x="344" y="629" width="57" height="57" fill="#00868a"/><rect x="401" y="629" width="57" height="57" fill="#00868a"/><rect x="515" y="629" width="57" height="57" fill="#00868a"/><rect x="629" y="629" width="57" height="57" fill="#00868a"/><rect x="743" y="629" width="57" height="57" fill="#00868a"/><rect x="800" y="629" width="57" height="57" fill="#00868a"/><rect x="971" y="629" width="57" height="57" fill="#00868a"/><rect x="1085" y="629" width="57" height="57" fill="#00868a"/><rect x="1199" y="629" width="57" height="57" fill="#00868a"/><rect x="1370" y="629" width="57" height="57" fill="#00868a"/><rect x="1427" y="629" width="57" height="57" fill="#00868a"/><rect x="1484" y="629" width="57" height="57" fill="#00868a"/><rect x="1655" y="629" width="57" height="57" fill="#00868a"/><rect x="1712" y="629" width="57" height="57" fill="#00868a"/><rect x="1769" y="629" width="57" height="57" fill="#00868a"/><rect x="173" y="686" width="57" height="57" fill="#00868a"/><rect x="230" y="686" width="57" height="57" fill="#00868a"/><rect x="401" y="686" width="57" height="57" fill="#00868a"/><rect x="458" y="686" width="57" height="57" fill="#00868a"/><rect x="1370" y="686" width="57" height="57" fill="#00868a"/><rect x="1427" y="686" width="57" height="57" fill="#00868a"/><rect x="1541" y="686" width="57" height="57" fill="#00868a"/><rect x="1712" y="686" width="57" height="57" fill="#00868a"/><rect x="1769" y="686" width="57" height="57" fill="#00868a"/><rect x="230" y="743" width="57" height="57" fill="#00868a"/><rect x="401" y="743" width="57" height="57" fill="#00868a"/><rect x="458" y="743" width="57" height="57" fill="#00868a"/><rect x="515" y="743" width="57" height="57" fill="#00868a"/><rect x="1313" y="743" width="57" height="57" fill="#00868a"/><rect x="1655" y="743" width="57" height="57" fill="#00868a"/><rect x="287" y="800" width="57" height="57" fill="#00868a"/><rect x="344" y="800" width="57" height="57" fill="#00868a"/><rect x="401" y="800" width="57" height="57" fill="#00868a"/><rect x="458" y="800" width="57" height="57" fill="#00868a"/><rect x="629" y="800" width="57" height="57" fill="#00868a"/><rect x="1313" y="800" width="57" height="57" fill="#00868a"/><rect x="1427" y="800" width="57" height="57" fill="#00868a"/><rect x="1484" y="800" width="57" height="57" fill="#00868a"/><rect x="1541" y="800" width="57" height="57" fill="#00868a"/><rect x="1598" y="800" width="57" height="57" fill="#00868a"/><rect x="1655" y="800" width="57" height="57" fill="#00868a"/><rect x="173" y="857" width="57" height="57" fill="#00868a"/><rect x="230" y="857" width="57" height="57" fill="#00868a"/><rect x="458" y="857" width="57" height="57" fill="#00868a"/><rect x="515" y="857" width="57" height="57" fill="#00868a"/><rect x="1313" y="857" width="57" height="57" fill="#00868a"/><rect x="1370" y="857" width="57" height="57" fill="#00868a"/><rect x="1541" y="857" width="57" height="57" fill="#00868a"/><rect x="1655" y="857" width="57" height="57" fill="#00868a"/><rect x="1712" y="857" width="57" height="57" fill="#00868a"/><rect x="401" y="914" width="57" height="57" fill="#00868a"/><rect x="572" y="914" width="57" height="57" fill="#00868a"/><rect x="629" y="914" width="57" height="57" fill="#00868a"/><rect x="1313" y="914" width="57" height="57" fill="#00868a"/><rect x="1427" y="914" width="57" height="57" fill="#00868a"/><rect x="1541" y="914" width="57" height="57" fill="#00868a"/><rect x="1598" y="914" width="57" height="57" fill="#00868a"/><rect x="1769" y="914" width="57" height="57" fill="#00868a"/><rect x="173" y="971" width="57" height="57" fill="#00868a"/><rect x="230" y="971" width="57" height="57" fill="#00868a"/><rect x="344" y="971" width="57" height="57" fill="#00868a"/><rect x="458" y="971" width="57" height="57" fill="#00868a"/><rect x="515" y="971" width="57" height="57" fill="#00868a"/><rect x="572" y="971" width="57" height="57" fill="#00868a"/><rect x="629" y="971" width="57" height="57" fill="#00868a"/><rect x="1484" y="971" width="57" height="57" fill="#00868a"/><rect x="1655" y="971" width="57" height="57" fill="#00868a"/><rect x="1769" y="971" width="57" height="57" fill="#00868a"/><rect x="230" y="1028" width="57" height="57" fill="#00868a"/><rect x="287" y="1028" width="57" height="57" fill="#00868a"/><rect x="572" y="1028" width="57" height="57" fill="#00868a"/><rect x="1370" y="1028" width="57" height="57" fill="#00868a"/><rect x="1427" y="1028" width="57" height="57" fill="#00868a"/><rect x="1484" y="1028" width="57" height="57" fill="#00868a"/><rect x="1541" y="1028" width="57" height="57" fill="#00868a"/><rect x="1655" y="1028" width="57" height="57" fill="#00868a"/><rect x="1712" y="1028" width="57" height="57" fill="#00868a"/><rect x="1769" y="1028" width="57" height="57" fill="#00868a"/><rect x="173" y="1085" width="57" height="57" fill="#00868a"/><rect x="344" y="1085" width="57" height="57" fill="#00868a"/><rect x="401" y="1085" width="57" height="57" fill="#00868a"/><rect x="458" y="1085" width="57" height="57" fill="#00868a"/><rect x="515" y="1085" width="57" height="57" fill="#00868a"/><rect x="572" y="1085" width="57" height="57" fill="#00868a"/><rect x="1484" y="1085" width="57" height="57" fill="#00868a"/><rect x="173" y="1142" width="57" height="57" fill="#00868a"/><rect x="230" y="1142" width="57" height="57" fill="#00868a"/><rect x="572" y="1142" width="57" height="57" fill="#00868a"/><rect x="629" y="1142" width="57" height="57" fill="#00868a"/><rect x="1313" y="1142" width="57" height="57" fill="#00868a"/><rect x="1370" y="1142" width="57" height="57" fill="#00868a"/><rect x="1484" y="1142" width="57" height="57" fill="#00868a"/><rect x="1598" y="1142" width="57" height="57" fill="#00868a"/><rect x="1712" y="1142" width="57" height="57" fill="#00868a"/><rect x="173" y="1199" width="57" height="57" fill="#00868a"/><rect x="287" y="1199" width="57" height="57" fill="#00868a"/><rect x="344" y="1199" width="57" height="57" fill="#00868a"/><rect x="401" y="1199" width="57" height="57" fill="#00868a"/><rect x="515" y="1199" width="57" height="57" fill="#00868a"/><rect x="572" y="1199" width="57" height="57" fill="#00868a"/><rect x="1370" y="1199" width="57" height="57" fill="#00868a"/><rect x="1655" y="1199" width="57" height="57" fill="#00868a"/><rect x="173" y="1256" width="57" height="57" fill="#00868a"/><rect x="287" y="1256" width="57" height="57" fill="#00868a"/><rect x="344" y="1256" width="57" height="57" fill="#00868a"/><rect x="458" y="1256" width="57" height="57" fill="#00868a"/><rect x="572" y="1256" width="57" height="57" fill="#00868a"/><rect x="1313" y="1256" width="57" height="57" fill="#00868a"/><rect x="1427" y="1256" width="57" height="57" fill="#00868a"/><rect x="1541" y="1256" width="57" height="57" fill="#00868a"/><rect x="1598" y="1256" width="57" height="57" fill="#00868a"/><rect x="1712" y="1256" width="57" height="57" fill="#00868a"/><rect x="1769" y="1256" width="57" height="57" fill="#00868a"/><rect x="173" y="1313" width="57" height="57" fill="#00868a"/><rect x="287" y="1313" width="57" height="57" fill="#00868a"/><rect x="344" y="1313" width="57" height="57" fill="#00868a"/><rect x="515" y="1313" width="57" height="57" fill="#00868a"/><rect x="800" y="1313" width="57" height="57" fill="#00868a"/><rect x="857" y="1313" width="57" height="57" fill="#00868a"/><rect x="914" y="1313" width="57" height="57" fill="#00868a"/><rect x="1028" y="1313" width="57" height="57" fill="#00868a"/><rect x="1199" y="1313" width="57" height="57" fill="#00868a"/><rect x="1313" y="1313" width="57" height="57" fill="#00868a"/><rect x="1370" y="1313" width="57" height="57" fill="#00868a"/><rect x="1427" y="1313" width="57" height="57" fill="#00868a"/><rect x="1484" y="1313" width="57" height="57" fill="#00868a"/><rect x="1541" y="1313" width="57" height="57" fill="#00868a"/><rect x="1712" y="1313" width="57" height="57" fill="#00868a"/><rect x="1769" y="1313" width="57" height="57" fill="#00868a"/><rect x="629" y="1370" width="57" height="57" fill="#00868a"/><rect x="857" y="1370" width="57" height="57" fill="#00868a"/><rect x="971" y="1370" width="57" height="57" fill="#00868a"/><rect x="1028" y="1370" width="57" height="57" fill="#00868a"/><rect x="1085" y="1370" width="57" height="57" fill="#00868a"/><rect x="1142" y="1370" width="57" height="57" fill="#00868a"/><rect x="1199" y="1370" width="57" height="57" fill="#00868a"/><rect x="1256" y="1370" width="57" height="57" fill="#00868a"/><rect x="1313" y="1370" width="57" height="57" fill="#00868a"/><rect x="1541" y="1370" width="57" height="57" fill="#00868a"/><rect x="1598" y="1370" width="57" height="57" fill="#00868a"/><rect x="1769" y="1370" width="57" height="57" fill="#00868a"/><rect x="914" y="1427" width="57" height="57" fill="#00868a"/><rect x="971" y="1427" width="57" height="57" fill="#00868a"/><rect x="1142" y="1427" width="57" height="57" fill="#00868a"/><rect x="1256" y="1427" width="57" height="57" fill="#00868a"/><rect x="1313" y="1427" width="57" height="57" fill="#00868a"/><rect x="1427" y="1427" width="57" height="57" fill="#00868a"/><rect x="1541" y="1427" width="57" height="57" fill="#00868a"/><rect x="1598" y="1427" width="57" height="57" fill="#00868a"/><rect x="1655" y="1427" width="57" height="57" fill="#00868a"/><rect x="1712" y="1427" width="57" height="57" fill="#00868a"/><rect x="914" y="1484" width="57" height="57" fill="#00868a"/><rect x="971" y="1484" width="57" height="57" fill="#00868a"/><rect x="1256" y="1484" width="57" height="57" fill="#00868a"/><rect x="1313" y="1484" width="57" height="57" fill="#00868a"/><rect x="1541" y="1484" width="57" height="57" fill="#00868a"/><rect x="1598" y="1484" width="57" height="57" fill="#00868a"/><rect x="1712" y="1484" width="57" height="57" fill="#00868a"/><rect x="1769" y="1484" width="57" height="57" fill="#00868a"/><rect x="629" y="1541" width="57" height="57" fill="#00868a"/><rect x="686" y="1541" width="57" height="57" fill="#00868a"/><rect x="800" y="1541" width="57" height="57" fill="#00868a"/><rect x="1028" y="1541" width="57" height="57" fill="#00868a"/><rect x="1085" y="1541" width="57" height="57" fill="#00868a"/><rect x="1142" y="1541" width="57" height="57" fill="#00868a"/><rect x="1256" y="1541" width="57" height="57" fill="#00868a"/><rect x="1313" y="1541" width="57" height="57" fill="#00868a"/><rect x="1370" y="1541" width="57" height="57" fill="#00868a"/><rect x="1427" y="1541" width="57" height="57" fill="#00868a"/><rect x="1484" y="1541" width="57" height="57" fill="#00868a"/><rect x="1541" y="1541" width="57" height="57" fill="#00868a"/><rect x="629" y="1598" width="57" height="57" fill="#00868a"/><rect x="686" y="1598" width="57" height="57" fill="#00868a"/><rect x="743" y="1598" width="57" height="57" fill="#00868a"/><rect x="857" y="1598" width="57" height="57" fill="#00868a"/><rect x="914" y="1598" width="57" height="57" fill="#00868a"/><rect x="1142" y="1598" width="57" height="57" fill="#00868a"/><rect x="1199" y="1598" width="57" height="57" fill="#00868a"/><rect x="1313" y="1598" width="57" height="57" fill="#00868a"/><rect x="1370" y="1598" width="57" height="57" fill="#00868a"/><rect x="1427" y="1598" width="57" height="57" fill="#00868a"/><rect x="1541" y="1598" width="57" height="57" fill="#00868a"/><rect x="1598" y="1598" width="57" height="57" fill="#00868a"/><rect x="629" y="1655" width="57" height="57" fill="#00868a"/><rect x="686" y="1655" width="57" height="57" fill="#00868a"/><rect x="857" y="1655" width="57" height="57" fill="#00868a"/><rect x="914" y="1655" width="57" height="57" fill="#00868a"/><rect x="971" y="1655" width="57" height="57" fill="#00868a"/><rect x="1085" y="1655" width="57" height="57" fill="#00868a"/><rect x="1142" y="1655" width="57" height="57" fill="#00868a"/><rect x="1199" y="1655" width="57" height="57" fill="#00868a"/><rect x="1370" y="1655" width="57" height="57" fill="#00868a"/><rect x="1427" y="1655" width="57" height="57" fill="#00868a"/><rect x="1484" y="1655" width="57" height="57" fill="#00868a"/><rect x="1541" y="1655" width="57" height="57" fill="#00868a"/><rect x="1655" y="1655" width="57" height="57" fill="#00868a"/><rect x="1712" y="1655" width="57" height="57" fill="#00868a"/><rect x="686" y="1712" width="57" height="57" fill="#00868a"/><rect x="800" y="1712" width="57" height="57" fill="#00868a"/><rect x="971" y="1712" width="57" height="57" fill="#00868a"/><rect x="1028" y="1712" width="57" height="57" fill="#00868a"/><rect x="1085" y="1712" width="57" height="57" fill="#00868a"/><rect x="1142" y="1712" width="57" height="57" fill="#00868a"/><rect x="1199" y="1712" width="57" height="57" fill="#00868a"/><rect x="1313" y="1712" width="57" height="57" fill="#00868a"/><rect x="1484" y="1712" width="57" height="57" fill="#00868a"/><rect x="1598" y="1712" width="57" height="57" fill="#00868a"/><rect x="1769" y="1712" width="57" height="57" fill="#00868a"/><rect x="743" y="1769" width="57" height="57" fill="#00868a"/><rect x="971" y="1769" width="57" height="57" fill="#00868a"/><rect x="1028" y="1769" width="57" height="57" fill="#00868a"/><rect x="1142" y="1769" width="57" height="57" fill="#00868a"/><rect x="1199" y="1769" width="57" height="57" fill="#00868a"/><rect x="1427" y="1769" width="57" height="57" fill="#00868a"/><rect x="1484" y="1769" width="57" height="57" fill="#00868a"/><rect x="1541" y="1769" width="57" height="57" fill="#00868a"/><rect x="1598" y="1769" width="57" height="57" fill="#00868a"/><svg version="1.1" id="Ebene_1" x="173" y="173" viewBox="0 0 700 700" style="enable-background:new 0 0 700 700;" xml:space="preserve" width="399" height="399" shape-rendering="auto">

<path fill="#00868a" d="M21.2-0.1C9.5-0.1-0.1,9.5-0.1,21.2v78.8v100v100v100v100v100v78.8c0,11.7,9.5,21.3,21.3,21.3h657.6  c11.7,0,21.3-9.5,21.3-21.3V600V500V400V300V200v-100V21.2c0-11.7-9.5-21.3-21.3-21.3H21.2z M600,200v100v100v100v87.8  c0,6.8-5.5,12.2-12.2,12.2H112.2c-6.8,0-12.2-5.5-12.2-12.2V500V400V300V200v-87.8c0-6.8,5.5-12.2,12.2-12.2h475.6  c6.8,0,12.2,5.5,12.2,12.2V200z"/>
</svg>
<svg version="1.1" id="Ebene_1" x="173" y="173" viewBox="0 0 700 700" style="enable-background:new 0 0 700 700;" xml:space="preserve" width="399" height="399" shape-rendering="auto">

<path fill="#00868a" d="M500,400V300v-78.8c0-11.7-9.5-21.3-21.3-21.3H221.2c-11.7,0-21.3,9.5-21.3,21.3V300v100v78.8    c0,11.7,9.5,21.3,21.3,21.3h257.5c11.7,0,21.3-9.5,21.3-21.3V400z"/>
</svg>
<svg version="1.1" id="Ebene_1" x="1427" y="173" viewBox="0 0 700 700" style="enable-background:new 0 0 700 700;" xml:space="preserve" width="399" height="399" shape-rendering="auto">

<path fill="#00868a" d="M21.2-0.1C9.5-0.1-0.1,9.5-0.1,21.2v78.8v100v100v100v100v100v78.8c0,11.7,9.5,21.3,21.3,21.3h657.6  c11.7,0,21.3-9.5,21.3-21.3V600V500V400V300V200v-100V21.2c0-11.7-9.5-21.3-21.3-21.3H21.2z M600,200v100v100v100v87.8  c0,6.8-5.5,12.2-12.2,12.2H112.2c-6.8,0-12.2-5.5-12.2-12.2V500V400V300V200v-87.8c0-6.8,5.5-12.2,12.2-12.2h475.6  c6.8,0,12.2,5.5,12.2,12.2V200z"/>
</svg>
<svg version="1.1" id="Ebene_1" x="1427" y="173" viewBox="0 0 700 700" style="enable-background:new 0 0 700 700;" xml:space="preserve" width="399" height="399" shape-rendering="auto">

<path fill="#00868a" d="M500,400V300v-78.8c0-11.7-9.5-21.3-21.3-21.3H221.2c-11.7,0-21.3,9.5-21.3,21.3V300v100v78.8    c0,11.7,9.5,21.3,21.3,21.3h257.5c11.7,0,21.3-9.5,21.3-21.3V400z"/>
</svg>
<svg version="1.1" id="Ebene_1" x="173" y="1427" viewBox="0 0 700 700" style="enable-background:new 0 0 700 700;" xml:space="preserve" width="399" height="399" shape-rendering="auto">

<path fill="#00868a" d="M21.2-0.1C9.5-0.1-0.1,9.5-0.1,21.2v78.8v100v100v100v100v100v78.8c0,11.7,9.5,21.3,21.3,21.3h657.6  c11.7,0,21.3-9.5,21.3-21.3V600V500V400V300V200v-100V21.2c0-11.7-9.5-21.3-21.3-21.3H21.2z M600,200v100v100v100v87.8  c0,6.8-5.5,12.2-12.2,12.2H112.2c-6.8,0-12.2-5.5-12.2-12.2V500V400V300V200v-87.8c0-6.8,5.5-12.2,12.2-12.2h475.6  c6.8,0,12.2,5.5,12.2,12.2V200z"/>
</svg>
<svg version="1.1" id="Ebene_1" x="173" y="1427" viewBox="0 0 700 700" style="enable-background:new 0 0 700 700;" xml:space="preserve" width="399" height="399" shape-rendering="auto">

<path fill="#00868a" d="M500,400V300v-78.8c0-11.7-9.5-21.3-21.3-21.3H221.2c-11.7,0-21.3,9.5-21.3,21.3V300v100v78.8    c0,11.7,9.5,21.3,21.3,21.3h257.5c11.7,0,21.3-9.5,21.3-21.3V400z"/>
</svg>
<svg viewBox="0 0 30 30" x="714" y="714" width="570" height="570" shape-rendering="auto"><defs><style>.c{fill:none;}</style></defs><g id="a"><g><path fill="#00868a" d="M15,4.342c3.471,0,3.882,.013,5.253,.076,1.267,.058,1.956,.27,2.414,.448,.607,.236,1.04,.518,1.495,.972,.455,.455,.737,.888,.972,1.495,.178,.458,.39,1.146,.448,2.414,.063,1.371,.076,1.782,.076,5.253s-.013,3.882-.076,5.253c-.058,1.267-.27,1.956-.448,2.414-.236,.607-.518,1.04-.972,1.495s-.888,.737-1.495,.972c-.458,.178-1.146,.39-2.414,.448-1.371,.063-1.782,.076-5.253,.076s-3.882-.013-5.253-.076c-1.267-.058-1.956-.27-2.414-.448-.607-.236-1.04-.518-1.495-.972-.455-.455-.737-.888-.972-1.495-.178-.458-.39-1.146-.448-2.414-.063-1.371-.076-1.782-.076-5.253s.013-3.882,.076-5.253c.058-1.267,.27-1.956,.448-2.414,.236-.607,.518-1.04,.972-1.495s.888-.737,1.495-.972c.458-.178,1.146-.39,2.414-.448,1.371-.063,1.782-.076,5.253-.076m0-2.342c-3.531,0-3.973,.015-5.36,.078-1.384,.063-2.329,.283-3.156,.604-.855,.332-1.58,.777-2.303,1.499-.723,.723-1.167,1.448-1.499,2.303-.321,.827-.541,1.772-.604,3.156-.063,1.387-.078,1.829-.078,5.36s.015,3.973,.078,5.36c.063,1.384,.283,2.329,.604,3.156,.332,.855,.777,1.58,1.499,2.303,.723,.723,1.448,1.167,2.303,1.499,.827,.321,1.772,.541,3.156,.604,1.387,.063,1.829,.078,5.36,.078s3.973-.015,5.36-.078c1.384-.063,2.329-.283,3.156-.604,.855-.332,1.58-.777,2.303-1.499,.723-.723,1.167-1.448,1.499-2.303,.321-.827,.541-1.772,.604-3.156,.063-1.387,.078-1.829,.078-5.36s-.015-3.973-.078-5.36c-.063-1.384-.283-2.329-.604-3.156-.332-.855-.777-1.58-1.499-2.303-.723-.723-1.448-1.167-2.303-1.499-.827-.321-1.772-.541-3.156-.604-1.387-.063-1.829-.078-5.36-.078h0Z"/><path fill="#00868a" d="M15,8.324c-3.687,0-6.676,2.989-6.676,6.676s2.989,6.676,6.676,6.676,6.676-2.989,6.676-6.676-2.989-6.676-6.676-6.676Zm0,11.009c-2.393,0-4.333-1.94-4.333-4.333s1.94-4.333,4.333-4.333,4.333,1.94,4.333,4.333-1.94,4.333-4.333,4.333Z"/><circle fill="#00868a" cx="21.939" cy="8.061" r="1.56"/></g></g><g id="b"><rect fill="#00868a" class="c" width="30" height="30"/></g></svg></svg>

</svg>
